<?xml version="1.0" encoding="UTF-8" ?>
<svg version="1.1" width="36" height="36" xmlns="http://www.w3.org/2000/svg" shape-rendering="crispEdges">
<rect x="12" y="0" width="4" height="4" fill="#D8BFFF" />
<rect x="16" y="0" width="4" height="4" fill="#D8BFFF" />
<rect x="20" y="0" width="4" height="4" fill="#D8BFFF" />
<rect x="12" y="4" width="4" height="4" fill="#D8BFFF" />
<rect x="16" y="4" width="4" height="4" fill="#D8BFFF" />
<rect x="20" y="4" width="4" height="4" fill="#D8BFFF" />
<rect x="12" y="8" width="4" height="4" fill="#D8BFFF" />
<rect x="16" y="8" width="4" height="4" fill="#D8BFFF" />
<rect x="20" y="8" width="4" height="4" fill="#D8BFFF" />
<rect x="12" y="12" width="4" height="4" fill="#D8BFFF" />
<rect x="16" y="12" width="4" height="4" fill="#D8BFFF" />
<rect x="20" y="12" width="4" height="4" fill="#D8BFFF" />
<rect x="12" y="16" width="4" height="4" fill="#D8BFFF" />
<rect x="16" y="16" width="4" height="4" fill="#D8BFFF" />
<rect x="20" y="16" width="4" height="4" fill="#D8BFFF" />
<rect x="4" y="20" width="4" height="4" fill="#D8BFFF" />
<rect x="12" y="20" width="4" height="4" fill="#D8BFFF" />
<rect x="16" y="20" width="4" height="4" fill="#D8BFFF" />
<rect x="20" y="20" width="4" height="4" fill="#D8BFFF" />
<rect x="28" y="20" width="4" height="4" fill="#D8BFFF" />
<rect x="12" y="24" width="4" height="4" fill="#D8BFFF" />
<rect x="16" y="24" width="4" height="4" fill="#D8BFFF" />
<rect x="20" y="24" width="4" height="4" fill="#D8BFFF" />
<rect x="4" y="28" width="4" height="4" fill="#D8BFFF" />
<rect x="12" y="28" width="4" height="4" fill="#D8BFFF" />
<rect x="16" y="28" width="4" height="4" fill="#D8BFFF" />
<rect x="20" y="28" width="4" height="4" fill="#D8BFFF" />
<rect x="28" y="28" width="4" height="4" fill="#D8BFFF" />
<rect x="12" y="32" width="4" height="4" fill="#D8BFFF" />
<rect x="16" y="32" width="4" height="4" fill="#D8BFFF" />
<rect x="20" y="32" width="4" height="4" fill="#D8BFFF" />
</svg>