<?xml version="1.0" encoding="UTF-8" ?>
<svg version="1.1" width="36" height="36" xmlns="http://www.w3.org/2000/svg" shape-rendering="crispEdges">
<rect x="4" y="4" width="4" height="4" fill="#FFD4D4" />
<rect x="8" y="4" width="4" height="4" fill="#FFD4D4" />
<rect x="12" y="4" width="4" height="4" fill="#FFD4D4" />
<rect x="16" y="4" width="4" height="4" fill="#FFD4D4" />
<rect x="20" y="4" width="4" height="4" fill="#FFD4D4" />
<rect x="24" y="4" width="4" height="4" fill="#FFD4D4" />
<rect x="4" y="8" width="4" height="4" fill="#FFD4D4" />
<rect x="8" y="8" width="4" height="4" fill="#FFD4D4" />
<rect x="12" y="8" width="4" height="4" fill="#FFD4D4" />
<rect x="16" y="8" width="4" height="4" fill="#FFD4D4" />
<rect x="20" y="8" width="4" height="4" fill="#FFD4D4" />
<rect x="24" y="8" width="4" height="4" fill="#FFD4D4" />
<rect x="4" y="12" width="4" height="4" fill="#FFD4D4" />
<rect x="8" y="12" width="4" height="4" fill="#FFD4D4" />
<rect x="12" y="12" width="4" height="4" fill="#FFD4D4" />
<rect x="16" y="12" width="4" height="4" fill="#FFD4D4" />
<rect x="20" y="12" width="4" height="4" fill="#FFD4D4" />
<rect x="24" y="12" width="4" height="4" fill="#FFD4D4" />
<rect x="16" y="16" width="4" height="4" fill="#FFD4D4" />
<rect x="20" y="16" width="4" height="4" fill="#FFD4D4" />
<rect x="12" y="20" width="4" height="4" fill="#FFD4D4" />
<rect x="16" y="20" width="4" height="4" fill="#FFD4D4" />
<rect x="8" y="24" width="4" height="4" fill="#FFD4D4" />
<rect x="12" y="24" width="4" height="4" fill="#FFD4D4" />
<rect x="16" y="28" width="4" height="4" fill="#FFD4D4" />
</svg>